<?xml version="1.0" encoding="UTF-8" standalone="no"?>
<!DOCTYPE svg PUBLIC "-//W3C//DTD SVG 1.1//EN"
 "http://www.w3.org/Graphics/SVG/1.1/DTD/svg11.dtd">
<!-- Generated by graphviz version 2.38.0 (20140413.2041)
 -->
<!-- Pages: 1 -->
<svg width="715pt" height="215pt"
 viewBox="0.00 0.00 714.64 215.00" xmlns="http://www.w3.org/2000/svg" xmlns:xlink="http://www.w3.org/1999/xlink">
<g id="graph0" class="graph" transform="scale(1 1) rotate(0) translate(4 211)">
<polygon fill="white" stroke="none" points="-4,4 -4,-211 710.639,-211 710.639,4 -4,4"/>
<!-- a -->
<g id="14561616711743421050" class="node"><title>a</title>
<g id="a_14561616711743421050"><a xlink:title="/home/ednikru/work/codeCompass/test/TinyXML/tinystr.cpp">
<polygon fill="#afcbe4" stroke="black" points="62.6156,-123 0.127777,-123 0.127777,-87 62.6156,-87 62.6156,-123"/>
<text text-anchor="middle" x="31.3717" y="-101.7" font-family="Times,serif" font-size="11.00">tinystr.cpp</text>
</a>
</g>
</g>
<!-- b -->
<g id="3398646598555133663" class="node"><title>b</title>
<g id="a_3398646598555133663"><a xlink:title="/home/ednikru/work/codeCompass/test/TinyXML/tinystr.h">
<ellipse fill="#e4afaf" stroke="black" cx="150.075" cy="-105" rx="32.2858" ry="18"/>
<text text-anchor="middle" x="150.075" y="-101.7" font-family="Times,serif" font-size="11.00">tinystr.h</text>
</a>
</g>
</g>
<!-- a&#45;&gt;b -->
<g id="edge1" class="edge"><title>a&#45;&gt;b</title>
<path fill="none" stroke="black" d="M62.7294,-105C76.3158,-105 92.5558,-105 107.267,-105"/>
<polygon fill="black" stroke="black" points="107.648,-108.5 117.648,-105 107.648,-101.5 107.648,-108.5"/>
<text text-anchor="middle" x="90.2128" y="-108.3" font-family="Times,serif" font-size="11.00">uses</text>
</g>
<!-- d -->
<g id="14057242030784638328" class="node"><title>d</title>
<g id="a_14057242030784638328"><a xlink:title="/usr/include/assert.h">
<ellipse fill="#e4afaf" stroke="black" cx="267.908" cy="-139" rx="30.4868" ry="18"/>
<text text-anchor="middle" x="267.908" y="-135.7" font-family="Times,serif" font-size="11.00">assert.h</text>
</a>
</g>
</g>
<!-- b&#45;&gt;d -->
<g id="edge2" class="edge"><title>b&#45;&gt;d</title>
<path fill="none" stroke="black" d="M179.115,-113.23C194.529,-117.755 213.832,-123.421 230.409,-128.287"/>
<polygon fill="black" stroke="black" points="229.739,-131.738 240.32,-131.196 231.71,-125.021 229.739,-131.738"/>
<text text-anchor="middle" x="209.937" y="-128.3" font-family="Times,serif" font-size="11.00">uses</text>
</g>
<!-- f -->
<g id="6620452644123316851" class="node"><title>f</title>
<g id="a_6620452644123316851"><a xlink:title="/usr/include/string.h">
<ellipse fill="#e4afaf" stroke="black" cx="267.908" cy="-76" rx="30.5031" ry="18"/>
<text text-anchor="middle" x="267.908" y="-72.7" font-family="Times,serif" font-size="11.00">string.h</text>
</a>
</g>
</g>
<!-- b&#45;&gt;f -->
<g id="edge3" class="edge"><title>b&#45;&gt;f</title>
<path fill="none" stroke="black" d="M178.377,-96.0979C185.528,-93.9041 193.255,-91.6544 200.468,-89.8 209.601,-87.4517 219.518,-85.2227 228.837,-83.268"/>
<polygon fill="black" stroke="black" points="229.551,-86.6944 238.648,-81.2619 228.149,-79.8363 229.551,-86.6944"/>
<text text-anchor="middle" x="209.937" y="-93.3" font-family="Times,serif" font-size="11.00">uses</text>
</g>
<!-- h -->
<g id="7901467160375025541" class="node"><title>h</title>
<g id="a_7901467160375025541"><a xlink:title="/usr/include/features.h">
<ellipse fill="#e4afaf" stroke="black" cx="389.884" cy="-135" rx="36.5714" ry="18"/>
<text text-anchor="middle" x="389.884" y="-131.7" font-family="Times,serif" font-size="11.00">features.h</text>
</a>
</g>
</g>
<!-- d&#45;&gt;h -->
<g id="edge4" class="edge"><title>d&#45;&gt;h</title>
<path fill="none" stroke="black" d="M298.565,-138.011C311.983,-137.564 328.15,-137.025 343.074,-136.527"/>
<polygon fill="black" stroke="black" points="343.281,-140.022 353.159,-136.191 343.048,-133.026 343.281,-140.022"/>
<text text-anchor="middle" x="325.879" y="-140.3" font-family="Times,serif" font-size="11.00">uses</text>
</g>
<!-- f&#45;&gt;h -->
<g id="edge5" class="edge"><title>f&#45;&gt;h</title>
<path fill="none" stroke="black" d="M291.757,-87.2363C309.365,-95.8953 334.011,-108.015 354.069,-117.879"/>
<polygon fill="black" stroke="black" points="352.69,-121.101 363.208,-122.374 355.779,-114.82 352.69,-121.101"/>
<text text-anchor="middle" x="325.879" y="-111.3" font-family="Times,serif" font-size="11.00">uses</text>
</g>
<!-- k -->
<g id="75662322519231315" class="node"><title>k</title>
<g id="a_75662322519231315"><a xlink:title="/opt/compass/cc/trunk/trunk&#45;deps/lib/clang/3.5.0/include/stddef.h">
<ellipse fill="#e4afaf" stroke="black" cx="389.884" cy="-72" rx="31.763" ry="18"/>
<text text-anchor="middle" x="389.884" y="-68.7" font-family="Times,serif" font-size="11.00">stddef.h</text>
</a>
</g>
</g>
<!-- f&#45;&gt;k -->
<g id="edge6" class="edge"><title>f&#45;&gt;k</title>
<path fill="none" stroke="black" d="M298.288,-73.7618C304.28,-73.3781 310.545,-73.0297 316.409,-72.8 326.688,-72.3974 337.793,-72.1703 348.148,-72.0477"/>
<polygon fill="black" stroke="black" points="348.226,-75.5473 358.194,-71.9574 348.163,-68.5476 348.226,-75.5473"/>
<text text-anchor="middle" x="325.879" y="-76.3" font-family="Times,serif" font-size="11.00">uses</text>
</g>
<!-- m -->
<g id="13934496816334243232" class="node"><title>m</title>
<g id="a_13934496816334243232"><a xlink:title="/usr/include/xlocale.h">
<ellipse fill="#e4afaf" stroke="black" cx="389.884" cy="-18" rx="34.8047" ry="18"/>
<text text-anchor="middle" x="389.884" y="-14.7" font-family="Times,serif" font-size="11.00">xlocale.h</text>
</a>
</g>
</g>
<!-- f&#45;&gt;m -->
<g id="edge7" class="edge"><title>f&#45;&gt;m</title>
<path fill="none" stroke="black" d="M292.04,-64.817C309.793,-56.2349 334.576,-44.2538 354.627,-34.5605"/>
<polygon fill="black" stroke="black" points="356.271,-37.6534 363.751,-30.1499 353.225,-31.3512 356.271,-37.6534"/>
<text text-anchor="middle" x="325.879" y="-56.3" font-family="Times,serif" font-size="11.00">uses</text>
</g>
<!-- o -->
<g id="10722585346836295443" class="node"><title>o</title>
<g id="a_10722585346836295443"><a xlink:title="/usr/include/stdc&#45;predef.h">
<ellipse fill="#e4afaf" stroke="black" cx="526.964" cy="-189" rx="45.7127" ry="18"/>
<text text-anchor="middle" x="526.964" y="-185.7" font-family="Times,serif" font-size="11.00">stdc&#45;predef.h</text>
</a>
</g>
</g>
<!-- h&#45;&gt;o -->
<g id="edge8" class="edge"><title>h&#45;&gt;o</title>
<path fill="none" stroke="black" d="M418.873,-146.189C437.904,-153.797 463.406,-163.991 484.749,-172.524"/>
<polygon fill="black" stroke="black" points="483.64,-175.85 494.225,-176.312 486.238,-169.35 483.64,-175.85"/>
<text text-anchor="middle" x="453.889" y="-166.3" font-family="Times,serif" font-size="11.00">uses</text>
</g>
<!-- q -->
<g id="13387214663502743493" class="node"><title>q</title>
<g id="a_13387214663502743493"><a xlink:title="/usr/include/x86_64&#45;linux&#45;gnu/sys/cdefs.h">
<ellipse fill="#e4afaf" stroke="black" cx="526.964" cy="-135" rx="29.2173" ry="18"/>
<text text-anchor="middle" x="526.964" y="-131.7" font-family="Times,serif" font-size="11.00">cdefs.h</text>
</a>
</g>
</g>
<!-- h&#45;&gt;q -->
<g id="edge9" class="edge"><title>h&#45;&gt;q</title>
<path fill="none" stroke="black" d="M426.728,-135C445.326,-135 468.069,-135 487.089,-135"/>
<polygon fill="black" stroke="black" points="487.223,-138.5 497.223,-135 487.223,-131.5 487.223,-138.5"/>
<text text-anchor="middle" x="453.889" y="-138.3" font-family="Times,serif" font-size="11.00">uses</text>
</g>
<!-- s -->
<g id="15985526770019062608" class="node"><title>s</title>
<g id="a_15985526770019062608"><a xlink:title="/usr/include/x86_64&#45;linux&#45;gnu/gnu/stubs.h">
<ellipse fill="#e4afaf" stroke="black" cx="526.964" cy="-81" rx="28.983" ry="18"/>
<text text-anchor="middle" x="526.964" y="-77.7" font-family="Times,serif" font-size="11.00">stubs.h</text>
</a>
</g>
</g>
<!-- h&#45;&gt;s -->
<g id="edge10" class="edge"><title>h&#45;&gt;s</title>
<path fill="none" stroke="black" d="M418.873,-123.811C440.279,-115.254 469.87,-103.425 492.523,-94.3687"/>
<polygon fill="black" stroke="black" points="494.088,-97.5122 502.075,-90.5502 491.49,-91.0123 494.088,-97.5122"/>
<text text-anchor="middle" x="453.889" y="-115.3" font-family="Times,serif" font-size="11.00">uses</text>
</g>
<!-- u -->
<g id="16284024290596061018" class="node"><title>u</title>
<g id="a_16284024290596061018"><a xlink:title="/usr/include/x86_64&#45;linux&#45;gnu/bits/wordsize.h">
<ellipse fill="#e4afaf" stroke="black" cx="667.074" cy="-135" rx="39.6294" ry="18"/>
<text text-anchor="middle" x="667.074" y="-131.7" font-family="Times,serif" font-size="11.00">wordsize.h</text>
</a>
</g>
</g>
<!-- q&#45;&gt;u -->
<g id="edge11" class="edge"><title>q&#45;&gt;u</title>
<path fill="none" stroke="black" d="M556.581,-135C574.087,-135 596.946,-135 617.247,-135"/>
<polygon fill="black" stroke="black" points="617.28,-138.5 627.28,-135 617.28,-131.5 617.28,-138.5"/>
<text text-anchor="middle" x="600.04" y="-138.3" font-family="Times,serif" font-size="11.00">uses</text>
</g>
<!-- w -->
<g id="13708137106274339277" class="node"><title>w</title>
<g id="a_13708137106274339277"><a xlink:title="/usr/include/x86_64&#45;linux&#45;gnu/gnu/stubs&#45;64.h">
<ellipse fill="#e4afaf" stroke="black" cx="667.074" cy="-81" rx="38.1242" ry="18"/>
<text text-anchor="middle" x="667.074" y="-77.7" font-family="Times,serif" font-size="11.00">stubs&#45;64.h</text>
</a>
</g>
</g>
<!-- s&#45;&gt;w -->
<g id="edge12" class="edge"><title>s&#45;&gt;w</title>
<path fill="none" stroke="black" d="M556.246,-81C574.204,-81 597.894,-81 618.673,-81"/>
<polygon fill="black" stroke="black" points="618.914,-84.5001 628.914,-81 618.914,-77.5001 618.914,-84.5001"/>
<text text-anchor="middle" x="600.04" y="-84.3" font-family="Times,serif" font-size="11.00">uses</text>
</g>
</g>
</svg>
